<svg xmlns="http://www.w3.org/2000/svg" width="499.974" height="74.562" viewBox="0 0 132.285 19.728"><path d="m121.859 16.403.606 1.066s1.736-.824 2.286-2.181c.55 1.357 2.286 2.181 2.286 2.181l.605-1.066s-.654-.437-1.429-1.212c-.776-.775-.727-2.86-.727-2.86V8.478h1.68V7.242h-4.83v1.236h1.68v3.853s.049 2.085-.727 2.86a10.6 10.6 0 0 1-1.43 1.212m-45.509-.336h-1.83V8.505h1.831zm2.886-4.83h-1.45V7.234h-4.703v10.09h4.703v-4.787h1.45v6.73h1.448V7.096h-1.448zm2.57 8.178h1.448v-12.4h-1.448zm37.912-12.326h-1.45v12.259h1.45V12.63h1.996v-1.298h-1.996zm12.567-.013h-1.45v3.502h-1.155V7.014h-1.448v12.401h1.448v-7.54h1.155v7.473h1.45zM90.05 16.025h-3.094v-3.229h4.306V7.233h-5.784v1.314h4.32v2.95h-4.32v5.826l4.567-.008.004.004c1.679 0 2.861-.301 2.861-.301v-1.29s-1.185.3-2.86.3zm3.837 3.39h1.491v-12.4h-1.49zm3.373-.876h11.008v-1.285H97.261Zm4.745-12.129v1.504h-3.92v1.3h3.92c-.027 2.392-1.924 3.633-4.41 4.2v.004l.002-.004.325 1.218c2.1-.402 3.915-1.356 4.834-2.78q.004.004.007.01.003-.006.007-.01c.92 1.424 2.736 2.378 4.837 2.78l.325-1.218.003.004v-.004c-2.487-.567-4.386-1.808-4.413-4.2h3.921v-1.3h-3.922V6.411Zm0 0" style="fill:#656263;fill-opacity:1;fill-rule:nonzero;stroke:none;stroke-width:.352777"/><path d="M14.639 6.555c-1.666 0-2.858.547-3.828 1.94-.62-1.218-1.888-1.94-3.653-1.94-1.343 0-2.933.696-3.554 1.789V6.927H0V19.28h3.777v-7.108c0-1.117.722-2.137 2.038-2.137 1.367 0 1.989.92 1.989 2.088v7.157h3.727v-7.133c0-1.092.723-2.112 2.063-2.112 1.343 0 1.964.92 1.964 2.088v7.157h3.653v-8.002c0-3.356-2.236-4.723-4.572-4.723m27.451 4.101V6.927a3.8 3.8 0 0 0-.996-.122c-.994 0-2.561.397-3.208 1.788V6.927h-3.654V19.28h3.778v-5.392c0-2.461 1.369-3.356 2.886-3.356.373 0 .77.025 1.193.124m1.293 8.624h3.777V6.927h-3.777zm6.885-3.752c0 2.46 1.565 3.975 4.124 3.975 1.194 0 1.815-.272 1.965-.347v-3.13a4.7 4.7 0 0 1-.993.123c-.822 0-1.369-.274-1.369-1.292v-4.624h2.412V6.93h-2.412V3.325h-3.379v1.59c0 1.143-.621 2.014-1.915 2.014h-.62v3.304h2.187zM45.244 4.873a2.447 2.447 0 0 0 2.462-2.437A2.447 2.447 0 0 0 45.244 0c-1.314 0-2.41 1.096-2.41 2.436 0 1.341 1.096 2.437 2.41 2.437M26.727 9.499c1.81 0 2.463 1.155 2.512 2.111h-5.002c.076-.93.88-2.111 2.49-2.111m.225 10.229c2.832 0 4.715-1.448 5.515-3.299l-3.126-1.187c-.408.76-1.15 1.242-2.338 1.242-1.483 0-2.766-1.004-2.84-2.411h8.695c.026-.075.077-.654.077-1.181 0-4.022-2.39-6.41-6.259-6.41-3.242 0-6.234 2.563-6.234 6.585 0 4.197 3.066 6.661 6.51 6.661m35.491-3.754 5.643-5.94V6.928H57.971v3.306h5.224l-5.373 5.716v3.331h10.363v-3.306zm0 0" style="fill:#ee2d21;fill-opacity:1;fill-rule:nonzero;stroke:none;stroke-width:.352778"/><path d="M112.6 6.41v1.51h-2.64v1.212h6.736V7.92h-2.641V6.41Zm-.841 5.948c0-.878.744-1.59 1.663-1.59.918 0 1.663.712 1.663 1.59s-.745 1.59-1.663 1.59c-.919 0-1.663-.712-1.663-1.59m2.392 2.714c1.324-.291 2.318-1.355 2.318-2.714 0-1.598-1.375-2.829-3.047-2.829-1.671 0-3.09 1.23-3.09 2.83 0 1.328.979 2.375 2.269 2.692v1.536c-1.58.008-2.811-.04-2.811-.04v1.35c7.295.067 7.804-.428 7.804-.428v-1.188c-.978.162-2.229.243-3.443.28zm0 0" style="fill:#656263;fill-opacity:1;fill-rule:nonzero;stroke:none;stroke-width:.352777"/></svg>